<svg aria-hidden="true" style="position: absolute; width: 0; height: 0; overflow: hidden;" version="1.1" xmlns="http://www.w3.org/2000/svg" xmlns:xlink="http://www.w3.org/1999/xlink">
<defs>
<symbol id="right" viewBox="0 0 32 32">
<path stroke-linejoin="round" stroke-linecap="round" stroke-miterlimit="4" stroke-width="1.3333" d="M12 24l8-8-8-8"></path>
</symbol>
<symbol id="left" viewBox="0 0 32 32">
<path stroke-linejoin="round" stroke-linecap="round" stroke-miterlimit="4" stroke-width="1.3333" d="M20 24l-8-8 8-8"></path>
</symbol>
<symbol id="burger-menu" viewBox="0 0 32 32">
<path d="M3.56 6.743c-0.295 0.105-0.552 0.321-0.719 0.605-0.201 0.341-0.209 0.873-0.021 1.256 0.157 0.32 0.521 0.597 0.887 0.677 0.187 0.041 1.929 0.053 5.787 0.041 5.36-0.016 5.527-0.019 5.731-0.12 1.068-0.531 0.995-2.063-0.117-2.46-0.296-0.105-11.251-0.105-11.547 0zM3.556 14.753c-0.488 0.149-0.889 0.712-0.889 1.247 0 0.323 0.159 0.695 0.399 0.935 0.435 0.435-0.751 0.399 12.935 0.399 13.689 0 12.5 0.037 12.936-0.4 0.716-0.716 0.377-1.964-0.6-2.211-0.153-0.039-3.989-0.055-12.373-0.052-10.583 0.003-12.183 0.013-12.407 0.083zM3.697 22.717c-0.092 0.023-0.279 0.105-0.415 0.184-0.925 0.543-0.756 1.988 0.277 2.356 0.296 0.105 16.584 0.105 16.88 0 0.849-0.303 1.157-1.359 0.607-2.080-0.069-0.092-0.256-0.239-0.413-0.325l-0.287-0.159-8.24-0.008c-4.532-0.005-8.316 0.009-8.409 0.032z"></path>
</symbol>
<symbol id="facebook" viewBox="0 0 32 32">
<path d="M17.273 4.665c-1.768 0.29-2.795 0.998-3.17 2.183-0.209 0.664-0.293 1.335-0.327 2.658l-0.032 1.214h-2.118v3.040h2.134v13.28h4.053l0.027-13.2 2.64-0.029v-2.983l-2.64-0.029-0.017-0.64c-0.025-0.975 0.024-1.382 0.193-1.582 0.237-0.282 0.416-0.325 1.49-0.353l0.974-0.026v-3.559h-0.418c-0.23 0-0.848-0.011-1.374-0.025-0.681-0.018-1.087-0.005-1.415 0.050z"></path>
</symbol>
<symbol id="youtube" viewBox="0 0 32 32">
<path d="M9.546 5.923c-3.041 0.122-4.53 0.395-5.701 1.048-0.411 0.229-0.926 0.734-1.175 1.157-0.246 0.415-0.509 1.221-0.61 1.872-0.15 0.959-0.207 3.115-0.178 6.722 0.027 3.475 0.061 4.139 0.255 5.104 0.417 2.072 1.399 3.017 3.638 3.502 1.521 0.33 3.323 0.4 10.251 0.401 5.449 0 6.906-0.035 8.64-0.213 2.016-0.206 3.19-0.622 3.976-1.408 0.607-0.607 0.963-1.395 1.143-2.527 0.143-0.894 0.2-3.113 0.174-6.648-0.026-3.602-0.062-4.254-0.288-5.28-0.211-0.961-0.473-1.544-0.909-2.027-0.895-0.995-2.446-1.493-5.168-1.657-1.195-0.072-12.477-0.109-14.048-0.046zM16.814 13.253c2.339 1.402 4.253 2.567 4.253 2.587s-1.913 1.185-4.253 2.587c-2.339 1.403-4.307 2.585-4.374 2.627l-0.12 0.078v-10.585l0.12 0.078c0.066 0.042 2.034 1.224 4.374 2.627z"></path>
</symbol>
<symbol id="instagram" viewBox="0 0 32 32">
<path d="M28.718 10.756c-0.016-1.074-0.215-2.14-0.596-3.145-0.667-1.716-2.024-3.073-3.743-3.737-0.994-0.373-2.044-0.573-3.108-0.596-1.368-0.061-1.801-0.078-5.273-0.078s-3.916 0-5.274 0.078c-1.062 0.023-2.113 0.223-3.106 0.596-1.719 0.664-3.078 2.021-3.743 3.737-0.374 0.992-0.576 2.041-0.596 3.101-0.061 1.367-0.080 1.8-0.080 5.265s0 3.909 0.080 5.265c0.021 1.062 0.222 2.109 0.596 3.104 0.667 1.714 2.024 3.071 3.744 3.735 0.989 0.386 2.040 0.605 3.106 0.639 1.369 0.061 1.803 0.079 5.274 0.079s3.916 0 5.274-0.079c1.062-0.021 2.112-0.221 3.108-0.595 1.719-0.666 3.076-2.022 3.743-3.737 0.374-0.994 0.574-2.041 0.596-3.104 0.061-1.365 0.080-1.798 0.080-5.265-0.003-3.466-0.003-3.906-0.082-5.264zM15.99 22.531c-3.631 0-6.572-2.936-6.572-6.561s2.941-6.561 6.572-6.561c3.628 0 6.572 2.936 6.572 6.561s-2.944 6.561-6.572 6.561zM22.824 10.696c-0.849 0-1.532-0.684-1.532-1.53s0.684-1.53 1.532-1.53c0.846 0 1.531 0.684 1.531 1.53s-0.685 1.53-1.531 1.53z"></path>
<path d="M15.992 19.976c2.211 0 4.004-1.793 4.004-4.004s-1.793-4.004-4.004-4.004c-2.211 0-4.004 1.793-4.004 4.004s1.793 4.004 4.004 4.004z"></path>
</symbol>
<symbol id="heart" viewBox="0 0 35 32">
<path stroke-linejoin="round" stroke-linecap="round" stroke-miterlimit="4" stroke-width="2.9091" d="M30.313 5.251c-0.743-0.743-1.625-1.333-2.596-1.735s-2.011-0.609-3.062-0.609-2.091 0.207-3.062 0.609c-0.971 0.402-1.853 0.992-2.596 1.735l-1.542 1.542-1.542-1.542c-1.501-1.501-3.536-2.344-5.658-2.344s-4.158 0.843-5.658 2.344c-1.501 1.501-2.344 3.536-2.344 5.658s0.843 4.158 2.344 5.658l12.858 12.858 12.858-12.858c0.743-0.743 1.333-1.625 1.735-2.596s0.609-2.011 0.609-3.062-0.207-2.091-0.609-3.062c-0.402-0.971-0.992-1.853-1.735-2.596v0z"></path>
</symbol>
<symbol id="x" viewBox="0 0 32 32">
<path stroke-linejoin="round" stroke-linecap="round" stroke-miterlimit="4" stroke-width="2.0800" d="M24 8l-16 16"></path>
<path stroke-linejoin="round" stroke-linecap="round" stroke-miterlimit="4" stroke-width="2.0800" d="M8 8l16 16"></path>
</symbol>
</defs>
</svg>
